<?xml version="1.0" encoding="UTF-8" standalone="no"?>
<!-- Created with Inkscape (http://www.inkscape.org/) -->

<svg
   xmlns:dc="http://purl.org/dc/elements/1.1/"
   xmlns:cc="http://creativecommons.org/ns#"
   xmlns:rdf="http://www.w3.org/1999/02/22-rdf-syntax-ns#"
   xmlns:svg="http://www.w3.org/2000/svg"
   xmlns="http://www.w3.org/2000/svg"
   xmlns:sodipodi="http://sodipodi.sourceforge.net/DTD/sodipodi-0.dtd"
   xmlns:inkscape="http://www.inkscape.org/namespaces/inkscape"
   width="256"
   height="256"
   id="svg2985"
   version="1.1"
   inkscape:version="0.48.4 r9939"
   sodipodi:docname="logo_fail.svg"
   inkscape:export-filename="/home/rufus/Documents/learninghub-project/learninghub/learningbucket/static/img/logo.png"
   inkscape:export-xdpi="90"
   inkscape:export-ydpi="90">
  <defs
     id="defs2987" />
  <sodipodi:namedview
     id="base"
     pagecolor="#ffffff"
     bordercolor="#666666"
     borderopacity="1.0"
     inkscape:pageopacity="0.0"
     inkscape:pageshadow="2"
     inkscape:zoom="5.5"
     inkscape:cx="151.10755"
     inkscape:cy="94.328374"
     inkscape:current-layer="layer1"
     showgrid="true"
     inkscape:document-units="px"
     inkscape:grid-bbox="true"
     showguides="true"
     inkscape:guide-bbox="true"
     inkscape:window-width="2880"
     inkscape:window-height="1731"
     inkscape:window-x="0"
     inkscape:window-y="44"
     inkscape:window-maximized="1" />
  <metadata
     id="metadata2990">
    <rdf:RDF>
      <cc:Work
         rdf:about="">
        <dc:format>image/svg+xml</dc:format>
        <dc:type
           rdf:resource="http://purl.org/dc/dcmitype/StillImage" />
        <dc:title></dc:title>
      </cc:Work>
    </rdf:RDF>
  </metadata>
  <g
     id="layer1"
     inkscape:label="Layer 1"
     inkscape:groupmode="layer"
     transform="translate(0,192)">
    <path
       style="fill:#d9cb68;fill-opacity:1;stroke:#000000;stroke-width:5.06265974px;stroke-linecap:butt;stroke-linejoin:miter;stroke-opacity:1"
       d="m 98.5136,41.505716 55.97569,0 c 0,0 46.71318,-116.582015 46.06231,-171.906836 3.44411,-55.65026 -147.716226,-54.67394 -148.250499,0 C 51.324784,-79.957906 98.5136,41.505716 98.5136,41.505716 z"
       id="path2993"
       inkscape:connector-curvature="0"
       sodipodi:nodetypes="ccccc" />
    <g
       id="g2999"
       transform="matrix(5.0626599,0,0,5.0626599,-13.4378,-234.99027)">
      <path
         inkscape:connector-curvature="0"
         id="path2995"
         d="m 23.463089,54.614765 -0.51426,1.671343 -2.314167,1.735626"
         style="fill:none;stroke:#000000;stroke-width:1px;stroke-linecap:butt;stroke-linejoin:miter;stroke-opacity:1" />
      <path
         inkscape:connector-curvature="0"
         id="path2997"
         d="m 22.884547,58.72884 0.321412,-2.057038 1.414213,1.542779"
         style="fill:none;stroke:#000000;stroke-width:1px;stroke-linecap:butt;stroke-linejoin:miter;stroke-opacity:1" />
    </g>
    <g
       id="g3003"
       transform="matrix(-5.0626599,0,0,5.0626599,266.29863,-234.99027)">
      <path
         style="fill:none;stroke:#000000;stroke-width:1px;stroke-linecap:butt;stroke-linejoin:miter;stroke-opacity:1"
         d="m 23.463089,54.614765 -0.51426,1.671343 -2.314167,1.735626"
         id="path3005"
         inkscape:connector-curvature="0" />
      <path
         style="fill:none;stroke:#000000;stroke-width:1px;stroke-linecap:butt;stroke-linejoin:miter;stroke-opacity:1"
         d="m 22.884547,58.72884 0.321412,-2.057038 1.414213,1.542779"
         id="path3007"
         inkscape:connector-curvature="0" />
    </g>
    <g
       id="g3801"
       transform="matrix(5.0626599,0,0,5.0626599,-13.4378,-234.99027)">
      <path
         d="m 26.098669,24.112749 c 0,2.005875 -1.626083,3.631958 -3.631958,3.631958 -2.005875,0 -3.631957,-1.626083 -3.631957,-3.631958 0,-2.005875 1.626082,-3.631957 3.631957,-3.631957 2.005875,0 3.631958,1.626082 3.631958,3.631957 z"
         sodipodi:ry="3.6319575"
         sodipodi:rx="3.6319575"
         sodipodi:cy="24.112749"
         sodipodi:cx="22.466711"
         id="path3009"
         style="fill:none"
         sodipodi:type="arc" />
      <path
         sodipodi:type="arc"
         style="fill:#ffffff;fill-opacity:1;stroke:#000000;stroke-opacity:1"
         id="path3011"
         sodipodi:cx="22.466711"
         sodipodi:cy="24.112749"
         sodipodi:rx="3.6319575"
         sodipodi:ry="3.6319575"
         d="m 26.098669,24.112749 c 0,2.005875 -1.626083,3.631958 -3.631958,3.631958 -2.005875,0 -3.631957,-1.626083 -3.631957,-3.631958 0,-2.005875 1.626082,-3.631957 3.631957,-3.631957 2.005875,0 3.631958,1.626082 3.631958,3.631957 z" />
      <path
         transform="matrix(0.54883597,0,0,0.54883597,10.136172,10.814523)"
         d="m 26.098669,24.112749 c 0,2.005875 -1.626083,3.631958 -3.631958,3.631958 -2.005875,0 -3.631957,-1.626083 -3.631957,-3.631958 0,-2.005875 1.626082,-3.631957 3.631957,-3.631957 2.005875,0 3.631958,1.626082 3.631958,3.631957 z"
         sodipodi:ry="3.6319575"
         sodipodi:rx="3.6319575"
         sodipodi:cy="24.112749"
         sodipodi:cx="22.466711"
         id="path3797"
         style="fill:#000000;fill-opacity:1;stroke:#000000;stroke-opacity:1"
         sodipodi:type="arc" />
      <path
         sodipodi:nodetypes="cc"
         inkscape:connector-curvature="0"
         id="path3799"
         d="m 22.563135,18.616601 c -1.87928,-0.707412 -7.121464,3.163505 -4.765038,8.253287"
         style="fill:none;stroke:#000000;stroke-width:1px;stroke-linecap:butt;stroke-linejoin:miter;stroke-opacity:1" />
    </g>
    <g
       id="g3807"
       transform="matrix(-5.0626599,0,0,5.0626599,271.45629,-234.99027)">
      <path
         sodipodi:type="arc"
         style="fill:none"
         id="path3809"
         sodipodi:cx="22.466711"
         sodipodi:cy="24.112749"
         sodipodi:rx="3.6319575"
         sodipodi:ry="3.6319575"
         d="m 26.098669,24.112749 c 0,2.005875 -1.626083,3.631958 -3.631958,3.631958 -2.005875,0 -3.631957,-1.626083 -3.631957,-3.631958 0,-2.005875 1.626082,-3.631957 3.631957,-3.631957 2.005875,0 3.631958,1.626082 3.631958,3.631957 z" />
      <path
         d="m 26.098669,24.112749 c 0,2.005875 -1.626083,3.631958 -3.631958,3.631958 -2.005875,0 -3.631957,-1.626083 -3.631957,-3.631958 0,-2.005875 1.626082,-3.631957 3.631957,-3.631957 2.005875,0 3.631958,1.626082 3.631958,3.631957 z"
         sodipodi:ry="3.6319575"
         sodipodi:rx="3.6319575"
         sodipodi:cy="24.112749"
         sodipodi:cx="22.466711"
         id="path3811"
         style="fill:#ffffff;stroke:#000000;stroke-opacity:1"
         sodipodi:type="arc" />
      <path
         sodipodi:type="arc"
         style="fill:#000000;fill-opacity:1;stroke:#000000;stroke-opacity:1"
         id="path3813"
         sodipodi:cx="22.466711"
         sodipodi:cy="24.112749"
         sodipodi:rx="3.6319575"
         sodipodi:ry="3.6319575"
         d="m 26.098669,24.112749 c 0,2.005875 -1.626083,3.631958 -3.631958,3.631958 -2.005875,0 -3.631957,-1.626083 -3.631957,-3.631958 0,-2.005875 1.626082,-3.631957 3.631957,-3.631957 2.005875,0 3.631958,1.626082 3.631958,3.631957 z"
         transform="matrix(0.54883597,0,0,0.54883597,10.136172,10.814523)" />
      <path
         style="fill:none;stroke:#000000;stroke-width:1px;stroke-linecap:butt;stroke-linejoin:miter;stroke-opacity:1"
         d="m 22.563135,18.616601 c -1.807453,-0.99472 -6.546847,2.301579 -4.765038,8.253287"
         id="path3815"
         inkscape:connector-curvature="0"
         sodipodi:nodetypes="cc" />
    </g>
    <path
       style="fill:#e3a610;fill-opacity:1;stroke:#000000;stroke-width:5.06265974px;stroke-linecap:butt;stroke-linejoin:miter;stroke-opacity:1"
       d="m 102.09344,-171.00667 c -0.23015,-8.05424 -41.636462,-0.75024 -41.636462,-0.75024 0,0 27.498156,1.25954 22.435496,5.63183"
       id="path3819"
       inkscape:connector-curvature="0"
       sodipodi:nodetypes="ccc" />
    <path
       sodipodi:nodetypes="ccc"
       inkscape:connector-curvature="0"
       id="path3821"
       d="m 154.49395,-171.00667 c 0.23014,-8.05424 42.36372,5.06795 42.36372,5.06795 0,0 -28.22542,-4.55865 -23.16276,-0.18636"
       style="fill:#e3a610;fill-opacity:1;stroke:#000000;stroke-width:5.06265974px;stroke-linecap:butt;stroke-linejoin:miter;stroke-opacity:1" />
    <path
       style="fill:#e3a610;fill-opacity:1;stroke:#000000;stroke-width:5.06265974px;stroke-linecap:butt;stroke-linejoin:miter;stroke-opacity:1"
       d="m 118.57974,-79.374944 12.80726,15.711671 3.7635,-20.352178"
       id="path3823"
       inkscape:connector-curvature="0"
       sodipodi:nodetypes="ccc" />
    <path
       style="fill:#5c3229;fill-opacity:1;stroke:#000000;stroke-width:5.06265974px;stroke-linecap:butt;stroke-linejoin:miter;stroke-opacity:1"
       d="m 103.92386,30.339137 43.72297,0 c 23.24222,-53.38805 21.63137,-75.709779 21.63137,-75.709779 -3.2217,-5.753024 -66.96519,-8.974714 -83.533892,0 0,0 -4.142175,17.719316 18.179552,75.709779 z"
       id="path3825"
       inkscape:connector-curvature="0"
       sodipodi:nodetypes="ccccc" />
  </g>
</svg>
